<?xml version="1.0" encoding="UTF-8" standalone="no"?>
<!-- Created with Inkscape (http://www.inkscape.org/) -->

<svg
   width="158.06972mm"
   height="42.400749mm"
   viewBox="0 0 158.06972 42.400749"
   version="1.1"
   id="svg1"
   xml:space="preserve"
   inkscape:export-filename="Modulo.svg"
   inkscape:export-xdpi="96"
   inkscape:export-ydpi="96"
   xmlns:inkscape="http://www.inkscape.org/namespaces/inkscape"
   xmlns:sodipodi="http://sodipodi.sourceforge.net/DTD/sodipodi-0.dtd"
   xmlns="http://www.w3.org/2000/svg"
   xmlns:svg="http://www.w3.org/2000/svg"><sodipodi:namedview
     id="namedview1"
     pagecolor="#ffffff"
     bordercolor="#111111"
     borderopacity="1"
     inkscape:showpageshadow="0"
     inkscape:pageopacity="0"
     inkscape:pagecheckerboard="1"
     inkscape:deskcolor="#d1d1d1"
     inkscape:document-units="mm" /><defs
     id="defs1" /><g
     inkscape:label="Layer 1"
     inkscape:groupmode="layer"
     id="layer1"
     transform="translate(-17.578324,-74.393263)"><g
       id="g1"
       transform="translate(-8.5976452,-52.939935)"><path
         style="fill:#fed065"
         d="m 119.45999,169.65963 c -5.42923,-0.44865 -10.13697,-4.75821 -11.69223,-10.70329 -0.35022,-1.33875 -0.48606,-2.34084 -0.53987,-3.98238 -0.10236,-3.12321 0.42026,-5.73825 1.65971,-8.30471 2.07343,-4.29334 5.64278,-7.09447 10.04071,-7.87968 1.05435,-0.18825 3.2968,-0.1856 4.35702,0.005 2.25714,0.40608 4.44384,1.56982 5.92019,3.15068 l 0.60245,0.6451 v -7.62858 -7.62857 h 3.937 3.937 v 20.78566 20.78567 h -3.63108 -3.63108 l -0.0613,-1.26616 c -0.0337,-0.69638 -0.0857,-1.63692 -0.11542,-2.09008 l -0.0541,-0.82393 -0.22334,0.33325 c -0.60706,0.90582 -1.74055,2.00669 -2.82466,2.74341 -1.59755,1.08562 -3.31359,1.67999 -5.3779,1.86269 -1.06603,0.0943 -1.11129,0.0943 -2.30308,-0.004 z m 4.11283,-7.10757 c 2.88643,-0.41727 5.21519,-2.70567 6.07741,-5.97207 0.17707,-0.67078 0.19964,-0.94304 0.19964,-2.40732 0,-1.46428 -0.0226,-1.73654 -0.19964,-2.40732 -0.44149,-1.67252 -1.22014,-3.03372 -2.35633,-4.11923 -1.05762,-1.01044 -2.14004,-1.57351 -3.49726,-1.81924 -3.814,-0.69054 -7.2485,1.80039 -8.31668,6.03184 -0.16145,0.63956 -0.18873,0.974 -0.18873,2.31395 0,1.33995 0.0273,1.67439 0.18873,2.31395 1.04446,4.13747 4.34062,6.60788 8.09286,6.06544 z"
         id="path4" /><path
         style="fill:#ee466e"
         d="m 87.728638,169.66238 c -6.519962,-0.47269 -11.821359,-4.91436 -13.413724,-11.23842 -0.342496,-1.36022 -0.480704,-2.55519 -0.481841,-4.16608 -0.0011,-1.59426 0.08914,-2.54496 0.361056,-3.80277 0.635099,-2.93778 2.395858,-5.96506 4.636031,-7.97074 1.958053,-1.75308 4.566692,-3.04831 7.135704,-3.54297 4.712149,-0.90733 9.33421,0.12066 12.854107,2.85886 4.335429,3.37261 6.433139,9.0287 5.544369,14.9493 -0.64858,4.32051 -3.09107,8.17341 -6.645035,10.48221 -2.219717,1.44201 -4.62705,2.2321 -7.413069,2.43296 -1.280609,0.0923 -1.27149,0.0923 -2.577598,-0.002 z m 2.667829,-7.15256 c 1.438777,-0.2509 2.598335,-0.88288 3.724504,-2.02992 3.038934,-3.09526 3.226938,-8.77389 0.403792,-12.19652 -1.273647,-1.5441 -3.011247,-2.43413 -4.975792,-2.54869 -3.67312,-0.21419 -6.755569,2.46824 -7.548938,6.5693 -0.186394,0.9635 -0.186394,2.77386 0,3.73736 0.860499,4.44806 4.390008,7.16714 8.396434,6.46847 z m 82.252843,6.30569 c -3.53466,-0.44152 -6.50703,-2.6527 -7.90126,-5.87783 -1.02475,-2.37043 -1.1345,-5.40396 -0.28495,-7.87601 1.47534,-4.29302 5.54796,-6.95238 10.26054,-6.69998 5.05994,0.27102 8.85326,3.86718 9.44598,8.95504 0.63287,5.4325 -2.74167,10.26471 -7.92198,11.34398 -0.90411,0.18836 -2.70829,0.26598 -3.59833,0.1548 z m 2.58428,-6.63184 c 1.23988,-0.56764 1.98887,-1.90984 1.98671,-3.5602 -0.002,-1.2489 -0.30061,-2.0867 -1.0291,-2.88378 -0.24899,-0.27244 -0.6151,-0.55498 -0.90113,-0.69544 -0.42034,-0.20642 -0.57892,-0.23636 -1.24376,-0.23485 -0.69932,0.002 -0.80465,0.0247 -1.28046,0.28125 -0.28516,0.15375 -0.63512,0.40062 -0.7777,0.54861 -1.47247,1.52836 -1.48388,4.39258 -0.0235,5.89192 0.89507,0.91894 2.14287,1.168 3.26891,0.65249 z"
         id="path3" /><path
         style="fill:#05d59f"
         d="m 143.07527,168.78504 c 0.0372,-0.0658 6.18275,-9.41761 13.6567,-20.78181 l 13.589,-20.66218 4.59317,-0.004 c 2.52624,-0.002 4.59317,0.0164 4.59317,0.0411 0,0.0247 -6.14171,9.37826 -13.64824,20.78567 l -13.64823,20.74074 h -4.60164 c -3.93982,0 -4.5919,-0.0172 -4.53393,-0.11963 z"
         id="path2" /><path
         style="fill:#1089b1"
         d="m 26.175969,154.17267 v -14.732 h 3.629759 3.62976 l 0.04962,0.40217 c 0.02729,0.22119 0.07567,0.98426 0.107519,1.69572 0.03184,0.71145 0.08443,1.30995 0.116865,1.32999 0.03243,0.02 0.232892,-0.2001 0.445468,-0.48922 1.91473,-2.60413 5.341443,-4.04819 8.803962,-3.71009 2.483301,0.24248 4.456992,1.17308 6.097569,2.87501 0.685507,0.71114 1.508485,1.83005 1.631792,2.21855 0.02884,0.0909 0.07844,0.16423 0.110227,0.16304 0.03179,-0.001 0.228742,-0.27127 0.437678,-0.60017 1.439254,-2.26564 4.156495,-4.0046 7.070783,-4.52511 1.13367,-0.20248 3.262904,-0.20504 4.318,-0.005 4.088438,0.77439 6.891565,3.52913 8.032613,7.89397 0.517862,1.98097 0.499199,1.55154 0.535856,12.3305 l 0.03362,9.88483 h -3.941209 -3.941209 v -8.65939 c 0,-5.48512 -0.03231,-8.92238 -0.08815,-9.37683 -0.120681,-0.98222 -0.29853,-1.61276 -0.679993,-2.41078 -0.631846,-1.32183 -1.515923,-2.13622 -2.735362,-2.51974 -0.785505,-0.24705 -2.284701,-0.26186 -3.058163,-0.0302 -1.799347,0.53889 -3.112231,1.84962 -3.783822,3.77762 l -0.280178,0.80433 -0.02334,9.2075 -0.02334,9.2075 H 48.737467 44.80264 v -8.51234 c 0,-5.46233 -0.03233,-8.80228 -0.09023,-9.32155 -0.208522,-1.87005 -0.690527,-3.02016 -1.683449,-4.01687 -1.014852,-1.01872 -2.076002,-1.4076 -3.606821,-1.32179 -2.583155,0.1448 -4.502208,1.85875 -5.184674,4.63055 -0.11891,0.48295 -0.139125,1.65181 -0.165092,9.54617 l -0.02959,8.99583 H 30.10938 26.175976 Z m 121.949521,-6.86269 c -1.21259,-0.15805 -2.38644,-0.56301 -3.43128,-1.18374 -0.71672,-0.4258 -1.80686,-1.44247 -2.32518,-2.16847 -0.52428,-0.73435 -1.10524,-2.0055 -1.33787,-2.92728 -0.34561,-1.36941 -0.38585,-2.21549 -0.38585,-8.11247 v -5.58468 h 3.47133 3.47133 v 5.75316 c 0,3.73892 0.0315,5.89993 0.0899,6.17234 0.12014,0.56019 0.49862,1.13665 0.93656,1.42647 0.318,0.21044 0.43484,0.23703 1.04169,0.23703 0.80425,0 1.11868,-0.14346 1.54794,-0.70626 0.57731,-0.75691 0.56463,-0.60695 0.59733,-7.06191 l 0.0295,-5.82083 h 3.42421 3.42422 v 5.63367 c 0,3.42483 -0.0354,5.95094 -0.0902,6.44289 -0.36005,3.22895 -2.01921,5.71599 -4.70275,7.04929 -0.84279,0.41874 -1.63368,0.66192 -2.65768,0.81719 -0.8574,0.13001 -2.248,0.14506 -3.10315,0.0336 z"
         id="path1" /></g></g></svg>
